<mxfile
  host="Electron" 
  agent="Mozilla/5.0 (Macintosh; Intel Mac OS X 10_15_7) AppleWebKit/537.36 (KHTML, like Gecko) draw.io/25.0.2 Chrome/128.0.6613.186 Electron/32.2.5 Safari/537.36" 
  version="25.0.2"
  >
  <diagram
    name="-"
    >
    <mxGraphModel
      grid="1" 
      gridSize="10" 
      guides="1" 
      tooltips="1" 
      connect="1" 
      arrows="1" 
      fold="1" 
      page="1" 
      pageScale="1" 
      pageWidth="1" 
      pageHeight="1" 
      math="0" 
      shadow="0"
      >
      <root>
        <mxCell
          id="page"
          />
        <mxCell
          id="root" 
          parent="page"
          />
        <mxCell
          style="verticalAlign=top;aspect=fixed;align=center;spacingLeft=5;spacingRight=5;spacingBottom=5;strokeColor=none;" 
          id="shape_" 
          parent="root" 
          value=" " 
          vertex="1"
          >
          <mxGeometry
            as="geometry" 
            width="60" 
            height="38" 
            x="0" 
            y="0"
            />
          </mxCell>
        <mxCell
          style="editableCssRules=.*;html=1;shape=image;verticalLabelPosition=bottom;labelBackgroundColor=#ffffff;verticalAlign=top;aspect=fixed;imageAspect=0;image=data:image/svg+xml,PHN2ZyB4bWxucz0iaHR0cDovL3d3dy53My5vcmcvMjAwMC9zdmciIHhtbG5zOnY9Imh0dHBzOi8vdmVjdGEuaW8vbmFubyIgd2lkdGg9IjIwLjAxMDAwMDIyODg4MTgzNiIgaGVpZ2h0PSI5LjQ5NDcyOTA0MjA1MzIyMyIgdmlld0JveD0iMC4wMDAyMDYzODQ1NjA0NDI1Mjk2MiAwIDIwLjAxMDAwMDIyODg4MTgzNiA5LjQ5NDcyOTA0MjA1MzIyMyI+JiN4YTsJPHN0eWxlIHR5cGU9InRleHQvY3NzIj4mI3hhOwkuc3Qwe2ZpbGw6IzQyODVmNDt9JiN4YTsJLnN0MXtmaWxsOiM2NjlkZjY7fSYjeGE7CS5zdDJ7ZmlsbDojYWVjYmZhO30mI3hhOwk8L3N0eWxlPiYjeGE7CTxwYXRoIGNsYXNzPSJzdDAiIGQ9Ik0xLjQ3NiA4LjQzYTQuMzEgNC4zMSAwIDEgMSA2LjA3LS40IDMuNjggMy42OCAwIDAgMS0uMzkuNCA0LjMyIDQuMzIgMCAwIDEtNS42OCAwem01LjItNS4yYTMuMDcgMy4wNyAwIDEgMC0uNCA0LjMzIDMgMyAwIDAgMCAuNC0uNCAzLjA3IDMuMDcgMCAwIDAgMC0zLjkzem02LjE5IDUuMmE0LjMxIDQuMzEgMCAxIDEgNi4wNy0uNCAzLjc4IDMuNzggMCAwIDEtLjQuNCA0LjMxIDQuMzEgMCAwIDEtNS42NyAwem01LjItNS4yYTMuMDcgMy4wNyAwIDEgMC0uNCA0LjMzIDMgMyAwIDAgMCAuNC0uNCAzLjA4IDMuMDggMCAwIDAgMC0zLjkzeiIvPiYjeGE7CTxnIGNsYXNzPSJzdDEiPiYjeGE7CQk8Y2lyY2xlIGN4PSI0LjMxNiIgY3k9IjUuMTkiIHI9IjEuNjkiLz4mI3hhOwkJPGNpcmNsZSBjeD0iMTUuNjk2IiBjeT0iNS4xOSIgcj0iMS42OSIvPiYjeGE7CTwvZz4mI3hhOwk8cGF0aCBjbGFzcz0ic3QyIiBkPSJNMTIuMzk2LjU2YS4zMS4zMSAwIDAgMC0uMTgtLjU2aC00LjQyYS4zMS4zMSAwIDAgMC0uMTguNTYgNS43MyA1LjczIDAgMCAxIDIuMTMgMi45Mi4yOC4yOCAwIDAgMCAuMzYuMTYuMjkuMjkgMCAwIDAgLjE3LS4xNyA1LjY3IDUuNjcgMCAwIDEgMi4xMi0yLjkxeiIvPiYjeGE7PC9zdmc+;strokeColor=none;" 
          id="api_analytics_" 
          parent="shape_" 
          value=" " 
          vertex="1"
          >
          <mxGeometry
            width="40" 
            height="18" 
            as="geometry" 
            x="10" 
            y="10"
            />
          </mxCell>
        </root>
      </mxGraphModel>
    </diagram>
  </mxfile>